<svg xmlns="http://www.w3.org/2000/svg" width="128.748" height="50" viewBox="0 0 128.748 50">
  <g data-name="Group 24948" transform="translate(-40 -170)">
    <path data-name="Path 2830" d="M11.54,0c8.646,4.852,8.351,14.363,7.78,24.47H31.4a.177.177,0,0,0,.133-.053.218.218,0,0,0,.058-.171V21.1c0-.683,0-1.26-.005-1.725s0-.849,0-1.158-.011-.577-.022-.8-.016-.433-.032-.63a3.371,3.371,0,0,0-.149-.908,1.176,1.176,0,0,0-.417-.588,1.939,1.939,0,0,0-.812-.331,3.522,3.522,0,0,0-.55-.075c-.235-.016-.464-.022-.7-.022A1.141,1.141,0,0,1,28.5,14.8a.237.237,0,0,1-.139-.229.231.231,0,0,1,.171-.229,1.374,1.374,0,0,1,.5-.058q.656,0,1.329.016c.448.005.887.022,1.3.032l1.138.032c.342.011.625.016.843.016.2,0,.459-.005.779-.016s.678-.022,1.058-.032.769-.027,1.154-.032.732-.016,1.047-.016a1.555,1.555,0,0,1,.508.058.247.247,0,0,1,.022.458,1.243,1.243,0,0,1-.433.059,3.737,3.737,0,0,0-.417.022c-.149.016-.32.043-.513.075a1.221,1.221,0,0,0-.892.55,2.784,2.784,0,0,0-.293,1.276c-.011.2-.022.411-.032.63s-.011.491-.016.8-.011.7-.011,1.158S35.6,20.411,35.6,21.1v8.116c0,.988,0,1.912.005,2.782s.022,1.644.043,2.338.058,1.271.113,1.735a3.939,3.939,0,0,0,.155.817,1.394,1.394,0,0,0,.363.608,1.335,1.335,0,0,0,.732.3c.155.022.326.043.518.064l.577.048c.2.011.379.016.539.016a.83.83,0,0,1,.39.069.206.206,0,0,1,.123.187.258.258,0,0,1-.176.246,1.2,1.2,0,0,1-.464.075c-.7,0-1.373-.011-2.019-.027s-1.234-.027-1.746-.043-.929-.027-1.234-.027c-.187,0-.443.005-.758.016s-.668.022-1.052.032l-1.143.032c-.384.011-.732.016-1.052.016a1.313,1.313,0,0,1-.5-.075.26.26,0,0,1-.171-.246.205.205,0,0,1,.113-.187.823.823,0,0,1,.4-.069,5.819,5.819,0,0,0,.652-.038c.193-.027.358-.058.5-.091a.784.784,0,0,0,.5-.31,1.658,1.658,0,0,0,.278-.608,6.658,6.658,0,0,0,.155-.843q.08-.681.113-1.714c.027-.688.038-1.463.043-2.328s.005-1.794.005-2.782V26.39a.182.182,0,0,0-.058-.144.2.2,0,0,0-.133-.048H19.222c-.478,8.466-.807,17.184,4.027,23.8C6.011,37.718,21.177,12.489,11.54,0Z" transform="translate(29.85 170)" fill-rule="evenodd"/>
    <path data-name="Path 2831" d="M0,1.74C7.993,10.612-.193,30.8,5.049,43.471-3.443,33.639,4.4,12.309,0,1.74Z" transform="translate(40 168.405)" fill="#9b804e" fill-rule="evenodd"/>
    <path data-name="Path 2832" d="M13.8-46.505H5.291v.441a7.691,7.691,0,0,0,.571,3.19,4.163,4.163,0,0,0,1.5,1.842,3.644,3.644,0,0,0,2,.6,4.931,4.931,0,0,0,2.114-.48,3.525,3.525,0,0,0,1.621-1.6l.389.208a4.358,4.358,0,0,1-1.932,2.023,5.743,5.743,0,0,1-2.581.6A5.621,5.621,0,0,1,6.225-40.4a5.384,5.384,0,0,1-2.1-2.14,7.1,7.1,0,0,1-.8-3.528,7.8,7.8,0,0,1,.648-3.216A5.616,5.616,0,0,1,5.823-51.6a4.859,4.859,0,0,1,2.918-.869,4.668,4.668,0,0,1,2.8.8,4.983,4.983,0,0,1,1.686,2.153A7.65,7.65,0,0,1,13.8-46.505ZM8.767-51.953A2.666,2.666,0,0,0,6.355-50.6a7.631,7.631,0,0,0-1.012,3.346H11.8a7.731,7.731,0,0,0-.778-3.411A2.381,2.381,0,0,0,8.767-51.953ZM25.912-52.6a2.364,2.364,0,0,1,1.115.272.857.857,0,0,1,.519.791.957.957,0,0,1-.337.791,1.1,1.1,0,0,1-.7.272,1.233,1.233,0,0,1-.661-.169q-.272-.169-.6-.337a2.034,2.034,0,0,0-.921-.169,1.464,1.464,0,0,0-1.219.895,7.426,7.426,0,0,0-.791,2.321,15.881,15.881,0,0,0-.272,2.983q0,1.634.065,2.594a4.169,4.169,0,0,0,.272,1.4,1.01,1.01,0,0,0,.648.571,4.507,4.507,0,0,0,1.219.13l.052.311H18l.052-.311a4.384,4.384,0,0,0,1.193-.13,1.01,1.01,0,0,0,.648-.571,4.169,4.169,0,0,0,.272-1.4q.065-.96.065-2.594v-1.5q0-1.894-.065-3a4.637,4.637,0,0,0-.311-1.621,1.162,1.162,0,0,0-.752-.661,5.328,5.328,0,0,0-1.388-.143l-.052-.285.648-.078q.648-.078,1.647-.156t2.088-.078v3.813a5.244,5.244,0,0,1,1.284-2.892A3.4,3.4,0,0,1,25.912-52.6Zm8.638.13v8.248q0,1.349.052,2.14a3.027,3.027,0,0,0,.259,1.18,1.033,1.033,0,0,0,.648.519,4.507,4.507,0,0,0,1.219.13l.052.311H30.452l.052-.311a4.785,4.785,0,0,0,1.258-.13,1.028,1.028,0,0,0,.661-.532,3.178,3.178,0,0,0,.259-1.206q.052-.8.052-2.153V-46.35q0-1.894-.065-3.009a4.689,4.689,0,0,0-.324-1.66,1.289,1.289,0,0,0-.765-.713,4.657,4.657,0,0,0-1.414-.169l-.052-.285.661-.078q.661-.078,1.673-.143T34.55-52.471Zm-2.464-4.15a1.42,1.42,0,0,1,.441-1.038,1.42,1.42,0,0,1,1.038-.441,1.42,1.42,0,0,1,1.038.441,1.42,1.42,0,0,1,.441,1.038,1.42,1.42,0,0,1-.441,1.038,1.42,1.42,0,0,1-1.038.441,1.42,1.42,0,0,1-1.038-.441A1.42,1.42,0,0,1,32.086-56.622ZM43.914-55.4v3.19H47.1v.571h-3.19v9.883a1.341,1.341,0,0,0,.259.882.837.837,0,0,0,.674.311,3.9,3.9,0,0,0,1.038-.143,11.147,11.147,0,0,0,1.167-.4l.052.285a9.915,9.915,0,0,1-1.53.8,4.316,4.316,0,0,1-1.686.337,1.926,1.926,0,0,1-1.323-.415,2.039,2.039,0,0,1-.467-1.556v-9.986H40.542v-.571a2.518,2.518,0,0,0,1.582-.428,2.494,2.494,0,0,0,.8-1.154,10.226,10.226,0,0,0,.415-1.556Zm10.064,0v3.19h3.19v.571h-3.19v9.883a1.341,1.341,0,0,0,.259.882.836.836,0,0,0,.674.311,3.9,3.9,0,0,0,1.038-.143,11.147,11.147,0,0,0,1.167-.4l.052.285a9.915,9.915,0,0,1-1.53.8,4.316,4.316,0,0,1-1.686.337,1.926,1.926,0,0,1-1.323-.415,2.039,2.039,0,0,1-.467-1.556v-9.986H50.606v-.571a2.518,2.518,0,0,0,1.582-.428,2.494,2.494,0,0,0,.8-1.154,10.226,10.226,0,0,0,.415-1.556Zm16.186,7.081v2.62q0,1.842.065,2.853a3.492,3.492,0,0,0,.3,1.414.759.759,0,0,0,.7.4,1.629,1.629,0,0,0,.623-.117q.285-.117.545-.246l.13.259-.519.324a8.167,8.167,0,0,1-1.414.661,5.589,5.589,0,0,1-1.984.337,12.5,12.5,0,0,1-.182-1.453q-.078-.96-.078-2.023a9.146,9.146,0,0,1-.765,1.686A4.152,4.152,0,0,1,66.3-40.228a3.628,3.628,0,0,1-2.075.545,3.6,3.6,0,0,1-2.49-.856,3.032,3.032,0,0,1-.96-2.386,3.422,3.422,0,0,1,.752-2.192A4.891,4.891,0,0,1,63.938-46.6a14.87,14.87,0,0,1,4.41-.532v-.934a9.13,9.13,0,0,0-.195-1.984,2.478,2.478,0,0,0-.752-1.362A2.376,2.376,0,0,0,65.78-51.9a2.063,2.063,0,0,0-1.141.272,2.193,2.193,0,0,0-.661.661,6.407,6.407,0,0,0-.428.791,2.577,2.577,0,0,1-.428.674.88.88,0,0,1-.687.272.78.78,0,0,1-.882-.882,1.6,1.6,0,0,1,.623-1.271,4.381,4.381,0,0,1,1.621-.8,7.564,7.564,0,0,1,2.088-.285,4.671,4.671,0,0,1,3.061,1A3.84,3.84,0,0,1,70.163-48.321Zm-5.525,7.833a2.55,2.55,0,0,0,1.712-.6,4.36,4.36,0,0,0,1.128-1.53,8.869,8.869,0,0,0,.635-1.984,11.83,11.83,0,0,0,.233-1.932,8.9,8.9,0,0,0-3.281.545,3.809,3.809,0,0,0-1.777,1.349,3.243,3.243,0,0,0-.545,1.816,2.861,2.861,0,0,0,.467,1.647A1.606,1.606,0,0,0,64.639-40.488Zm21.347-7.548a4.333,4.333,0,0,1-.648,2.321A4.814,4.814,0,0,1,83.6-44.041a4.826,4.826,0,0,1-2.438.623,4.815,4.815,0,0,1-2.542-.674,3.568,3.568,0,0,0-.83,1.051,2.382,2.382,0,0,0-.259,1.051,1.487,1.487,0,0,0,.558,1.193,2.248,2.248,0,0,0,1.491.467q1.66,0,3.1.065a12,12,0,0,1,2.516.35A3.527,3.527,0,0,1,86.881-39a2.462,2.462,0,0,1,.61,1.777,3.511,3.511,0,0,1-.856,2.231,6.181,6.181,0,0,1-2.4,1.738,9.121,9.121,0,0,1-3.67.674,7.309,7.309,0,0,1-3.787-.869,2.6,2.6,0,0,1-1.453-2.3,3.284,3.284,0,0,1,.661-1.919,3.279,3.279,0,0,1,1.751-1.271,2.248,2.248,0,0,1-1.154-.973,2.778,2.778,0,0,1-.35-1.362,3.116,3.116,0,0,1,.558-1.712,4.763,4.763,0,0,1,1.388-1.4,4.973,4.973,0,0,1-1.336-1.6,4.308,4.308,0,0,1-.506-2.062,4.121,4.121,0,0,1,.648-2.3A4.523,4.523,0,0,1,78.736-51.9a5.2,5.2,0,0,1,2.425-.571,5.262,5.262,0,0,1,1.855.324,4.824,4.824,0,0,1,1.517.895A2.1,2.1,0,0,0,85.026-52a2.166,2.166,0,0,0,.156-.752,3.163,3.163,0,0,0-.078-.687,2.954,2.954,0,0,1-.078-.635,1,1,0,0,1,.311-.791,1,1,0,0,1,.674-.272,1,1,0,0,1,.674.272A1,1,0,0,1,87-54.08a2.75,2.75,0,0,1-.635,1.608,7.706,7.706,0,0,1-1.517,1.53,4.561,4.561,0,0,1,.83,1.31A4.069,4.069,0,0,1,85.986-48.036Zm-4.825,3.943a2.435,2.435,0,0,0,2.2-1.141,5.115,5.115,0,0,0,.726-2.8,4.729,4.729,0,0,0-.726-2.724,2.489,2.489,0,0,0-2.2-1.063,2.489,2.489,0,0,0-2.2,1.063,4.73,4.73,0,0,0-.726,2.724,5.115,5.115,0,0,0,.726,2.8A2.435,2.435,0,0,0,81.161-44.093ZM78.49-38.776a3.107,3.107,0,0,0-.882,1.025A3.294,3.294,0,0,0,77.141-36a2.485,2.485,0,0,0,1.025,2.062,4.272,4.272,0,0,0,2.685.791,6,6,0,0,0,2.386-.467A4.777,4.777,0,0,0,85-34.859a2.588,2.588,0,0,0,.674-1.738,1.639,1.639,0,0,0-.623-1.4,4.545,4.545,0,0,0-2.179-.623Q81.317-38.776,78.49-38.776Zm22.7-7.73H92.678v.441a7.691,7.691,0,0,0,.571,3.19,4.163,4.163,0,0,0,1.5,1.842,3.644,3.644,0,0,0,2,.6,4.931,4.931,0,0,0,2.114-.48,3.525,3.525,0,0,0,1.621-1.6l.389.208a4.358,4.358,0,0,1-1.932,2.023,5.743,5.743,0,0,1-2.581.6,5.621,5.621,0,0,1-2.749-.713,5.384,5.384,0,0,1-2.1-2.14,7.1,7.1,0,0,1-.8-3.528,7.8,7.8,0,0,1,.648-3.216A5.616,5.616,0,0,1,93.21-51.6a4.859,4.859,0,0,1,2.918-.869,4.668,4.668,0,0,1,2.8.8,4.984,4.984,0,0,1,1.686,2.153A7.65,7.65,0,0,1,101.186-46.505Zm-5.032-5.447A2.666,2.666,0,0,0,93.742-50.6a7.631,7.631,0,0,0-1.012,3.346h6.459a7.731,7.731,0,0,0-.778-3.411A2.381,2.381,0,0,0,96.154-51.953Z" transform="translate(66.937 240.1)"/>
    <path data-name="Path 2832 - Outline" d="M32.189-60.1a2.03,2.03,0,0,1,1.479.624A2.031,2.031,0,0,1,34.293-58a2.031,2.031,0,0,1-.624,1.479,2.031,2.031,0,0,1-1.479.624,2.031,2.031,0,0,1-1.479-.624A2.03,2.03,0,0,1,30.086-58a2.03,2.03,0,0,1,.624-1.479A2.03,2.03,0,0,1,32.189-60.1Zm0,2.957a.8.8,0,0,0,.6-.258.8.8,0,0,0,.258-.6.8.8,0,0,0-.258-.6.8.8,0,0,0-.6-.258.8.8,0,0,0-.6.258.8.8,0,0,0-.258.6.8.8,0,0,0,.258.6A.8.8,0,0,0,32.189-57.143Zm10.974-.319v3.25h3.19v1.821h-3.19v9.258a.782.782,0,0,0,.115.482.216.216,0,0,0,.194.086,3.291,3.291,0,0,0,.872-.12,10.581,10.581,0,0,0,1.1-.38l.71-.284.264,1.449-.352.226a10.588,10.588,0,0,1-1.627.855,4.958,4.958,0,0,1-1.928.386,2.532,2.532,0,0,1-1.738-.573A2.573,2.573,0,0,1,40.1-43.03v-9.361H38.542v-1.821h.625a1.95,1.95,0,0,0,1.2-.294,1.866,1.866,0,0,0,.6-.873,9.647,9.647,0,0,0,.389-1.461l.087-.464Zm-1.25,4.5v-1.487a3.017,3.017,0,0,1-.638.808h.072V-43.03c0,.777.18,1.02.257,1.089a1.32,1.32,0,0,0,.875.257,1.578,1.578,0,0,1-.162-.168,1.946,1.946,0,0,1-.4-1.282Zm11.314-4.5v3.25h3.19v1.821h-3.19v9.258a.782.782,0,0,0,.115.482.216.216,0,0,0,.194.086,3.291,3.291,0,0,0,.872-.12,10.581,10.581,0,0,0,1.1-.38l.71-.284.264,1.449-.352.226a10.588,10.588,0,0,1-1.627.855,4.958,4.958,0,0,1-1.928.386,2.532,2.532,0,0,1-1.738-.573,2.573,2.573,0,0,1-.677-2.023v-9.361H48.606v-1.821h.625a1.95,1.95,0,0,0,1.2-.294,1.866,1.866,0,0,0,.6-.873,9.647,9.647,0,0,0,.389-1.461l.087-.464Zm-1.25,4.5v-1.487a3.017,3.017,0,0,1-.638.808h.072V-43.03c0,.777.18,1.02.257,1.089a1.319,1.319,0,0,0,.875.257,1.578,1.578,0,0,1-.162-.168,1.946,1.946,0,0,1-.4-1.282Zm32.659-4.181a1.617,1.617,0,0,1,1.086.427,1.6,1.6,0,0,1,.525,1.262,3.361,3.361,0,0,1-.759,1.981,8.239,8.239,0,0,1-1.149,1.25,5.312,5.312,0,0,1,.535.975,4.708,4.708,0,0,1,.36,1.838,4.969,4.969,0,0,1-.742,2.65,5.455,5.455,0,0,1-1.96,1.887,5.465,5.465,0,0,1-2.748.7,5.559,5.559,0,0,1-2.428-.528,2.5,2.5,0,0,0-.382.553,1.752,1.752,0,0,0-.2.776.861.861,0,0,0,.334.714,1.639,1.639,0,0,0,1.09.321c1.111,0,2.163.022,3.128.065a12.678,12.678,0,0,1,2.648.37A4.154,4.154,0,0,1,85.957-40.8a3.072,3.072,0,0,1,.784,2.209,4.135,4.135,0,0,1-.994,2.623,6.823,6.823,0,0,1-2.636,1.919,9.778,9.778,0,0,1-3.921.727,7.946,7.946,0,0,1-4.108-.958,3.82,3.82,0,0,1-1.3-1.211,2.983,2.983,0,0,1-.46-1.621A3.91,3.91,0,0,1,74.1-39.4a3.963,3.963,0,0,1,1-.994,2.572,2.572,0,0,1-.444-.587,3.409,3.409,0,0,1-.428-1.663,3.742,3.742,0,0,1,.659-2.053,5.487,5.487,0,0,1,.938-1.1,5.671,5.671,0,0,1-.914-1.263,4.946,4.946,0,0,1-.58-2.357,4.754,4.754,0,0,1,.749-2.636,5.161,5.161,0,0,1,1.988-1.784,5.838,5.838,0,0,1,2.713-.641,5.909,5.909,0,0,1,2.073.364,5.657,5.657,0,0,1,1.171.6q.019-.043.036-.087a1.567,1.567,0,0,0,.116-.533,2.552,2.552,0,0,0-.063-.552,3.588,3.588,0,0,1-.093-.771,1.6,1.6,0,0,1,.525-1.262A1.617,1.617,0,0,1,84.637-57.143Zm-.205,3,.053-.071A2.172,2.172,0,0,0,85-55.455c0-.235-.074-.3-.1-.321a.38.38,0,0,0-.263-.118.38.38,0,0,0-.263.118c-.024.021-.1.086-.1.321a2.35,2.35,0,0,0,.063.5A3.81,3.81,0,0,1,84.432-54.148Zm-4.645,8.055a1.811,1.811,0,0,0,1.677-.852,4.529,4.529,0,0,0,.629-2.466,4.147,4.147,0,0,0-.617-2.371,1.863,1.863,0,0,0-1.689-.791,1.863,1.863,0,0,0-1.689.791,4.146,4.146,0,0,0-.617,2.371,4.529,4.529,0,0,0,.629,2.466A1.811,1.811,0,0,0,79.786-46.093Zm-2.837-.354a5.851,5.851,0,0,1-.719-2.964,5.542,5.542,0,0,1,.675-2.823,3.791,3.791,0,0,0-.771.868,3.478,3.478,0,0,0-.548,1.955,3.659,3.659,0,0,0,.432,1.768A4.4,4.4,0,0,0,76.949-46.447Zm5.911-5.61-.115-.1-.069-.059a5.554,5.554,0,0,1,.666,2.806,5.87,5.87,0,0,1-.7,2.932,4.185,4.185,0,0,0,.789-.939,3.687,3.687,0,0,0,.555-1.993,3.466,3.466,0,0,0-.262-1.353,3.96,3.96,0,0,0-.716-1.132ZM84.58-36.533q.1-.109.192-.222a2.882,2.882,0,0,0,.718-1.839,1.855,1.855,0,0,0-.436-1.344,2.935,2.935,0,0,0-1.4-.749,11.442,11.442,0,0,0-2.384-.33c-.946-.043-1.979-.064-3.072-.064a2.861,2.861,0,0,1-1.893-.613,2.111,2.111,0,0,1-.77-1.435,2.079,2.079,0,0,0-.059.488,2.143,2.143,0,0,0,.273,1.06,1.631,1.631,0,0,0,.849.7l.3.126.031-.019h.179c1.9,0,3.393.053,4.446.159a5.045,5.045,0,0,1,2.492.744,2.249,2.249,0,0,1,.873,1.9A3.118,3.118,0,0,1,84.58-36.533Zm-5.105,1.386a5.4,5.4,0,0,0,2.14-.416,4.182,4.182,0,0,0,1.538-1.08,1.966,1.966,0,0,0,.522-1.329,1,1,0,0,0-.373-.9,3.882,3.882,0,0,0-1.866-.5c-.974-.1-2.357-.149-4.113-.152a3.27,3.27,0,0,0-.557.725,2.657,2.657,0,0,0-.375,1.425,1.852,1.852,0,0,0,.782,1.567A3.689,3.689,0,0,0,79.475-35.147Zm-3.511-.076a3.087,3.087,0,0,1-.5-.723,3.181,3.181,0,0,1-.321-1.429,4,4,0,0,1,.386-1.76,2.838,2.838,0,0,0-.4.461,2.653,2.653,0,0,0-.546,1.558,1.981,1.981,0,0,0,1.148,1.759Q75.84-35.287,75.964-35.224ZM24.537-54.6a2.994,2.994,0,0,1,1.406.344,1.48,1.48,0,0,1,.853,1.345,1.567,1.567,0,0,1-.57,1.277,1.716,1.716,0,0,1-1.093.411,1.851,1.851,0,0,1-.99-.262c-.168-.1-.355-.209-.556-.314a1.427,1.427,0,0,0-.632-.1c-.226,0-.454.2-.678.583a6.854,6.854,0,0,0-.718,2.125,15.33,15.33,0,0,0-.261,2.866c0,1.07.021,1.929.063,2.552a3.5,3.5,0,0,0,.214,1.177.385.385,0,0,0,.259.237,3.844,3.844,0,0,0,1.043.1h.529l.26,1.561H15.888l.26-1.561h.529a3.727,3.727,0,0,0,1.017-.1.385.385,0,0,0,.259-.237,3.5,3.5,0,0,0,.214-1.177c.042-.623.063-1.481.063-2.552v-1.5c0-1.244-.021-2.24-.064-2.959a3.966,3.966,0,0,0-.252-1.39.532.532,0,0,0-.357-.328,4.773,4.773,0,0,0-1.218-.119h-.522l-.264-1.452,1.308-.157c.439-.053,1-.106,1.673-.158s1.4-.08,2.137-.08H21.3v1.347q.1-.12.206-.232A4.018,4.018,0,0,1,24.537-54.6Zm.6,2.127a.469.469,0,0,0,.308-.134c.031-.025.1-.085.1-.3,0-.066,0-.141-.184-.238a1.732,1.732,0,0,0-.825-.2,3.148,3.148,0,0,0-1.207.219,2.236,2.236,0,0,1,.834.223c.229.119.443.24.637.36A.632.632,0,0,0,25.134-52.474ZM20.456-50l-.409-.031v-3.181c-.441.01-.87.029-1.285.059a2.01,2.01,0,0,1,.283.441,5.152,5.152,0,0,1,.371,1.853c.044.744.066,1.764.066,3.033v1.5c0,1.1-.022,1.985-.066,2.636a4.684,4.684,0,0,1-.33,1.625q-.029.062-.062.12h1.483q-.033-.058-.062-.12a4.684,4.684,0,0,1-.33-1.625c-.044-.651-.066-1.538-.066-2.636a16.581,16.581,0,0,1,.283-3.1Q20.388-49.723,20.456-50ZM7.366-54.471a5.3,5.3,0,0,1,3.167.922,5.622,5.622,0,0,1,1.9,2.416,8.3,8.3,0,0,1,.62,3.252v.625H4.543a6.914,6.914,0,0,0,.512,2.746,3.573,3.573,0,0,0,1.273,1.575,3.005,3.005,0,0,0,1.661.5,4.334,4.334,0,0,0,1.849-.421,2.892,2.892,0,0,0,1.335-1.324l.294-.55,1.481.79-.278.546a4.987,4.987,0,0,1-2.212,2.3,6.389,6.389,0,0,1-2.858.661,6.265,6.265,0,0,1-3.051-.791A6.023,6.023,0,0,1,2.2-43.6,7.739,7.739,0,0,1,1.32-47.44a8.458,8.458,0,0,1,.7-3.471,6.259,6.259,0,0,1,2.06-2.574A5.491,5.491,0,0,1,7.366-54.471Zm2.4,5.214A6.446,6.446,0,0,0,9.1-51.744,1.763,1.763,0,0,0,7.392-52.7a2.037,2.037,0,0,0-1.88,1.051,6.537,6.537,0,0,0-.836,2.393Zm2.015.752a6.761,6.761,0,0,0-.5-2.14,4.477,4.477,0,0,0-.951-1.443,8.769,8.769,0,0,1,.724,3.433l.005.15Zm-8.447,0,.017-.184a8.534,8.534,0,0,1,.941-3.341A5.181,5.181,0,0,0,3.164-50.4,7.218,7.218,0,0,0,2.57-47.44a6.52,6.52,0,0,0,.724,3.221,4.848,4.848,0,0,0,1.7,1.807,5.275,5.275,0,0,1-1.072-1.577,8.333,8.333,0,0,1-.627-3.451v-.568H3.284l.008-.083v-.415Zm29.846-5.966H33.8V-45.6c0,.881.017,1.588.051,2.1a2.4,2.4,0,0,0,.187.927.413.413,0,0,0,.273.213,3.844,3.844,0,0,0,1.043.1h.529l.26,1.561h-7.8l.26-1.561h.529a4.117,4.117,0,0,0,1.086-.106.4.4,0,0,0,.278-.217,2.544,2.544,0,0,0,.191-.96c.034-.52.051-1.231.051-2.113v-2.075c0-1.244-.021-2.245-.064-2.973a4.018,4.018,0,0,0-.265-1.428.662.662,0,0,0-.4-.389,3.992,3.992,0,0,0-1.216-.137H28.27L28.005-54.1l1.322-.156c.45-.053,1.024-.1,1.706-.146S32.439-54.471,33.175-54.471Zm-.218,12.528-.022-.041a3.572,3.572,0,0,1-.332-1.433c-.035-.539-.053-1.272-.053-2.181v-7.618c-.459.008-.908.026-1.342.052a2.168,2.168,0,0,1,.327.5,5.21,5.21,0,0,1,.384,1.893c.044.752.066,1.777.066,3.045v2.075c0,.908-.018,1.646-.053,2.193A3.723,3.723,0,0,1,31.6-42l-.033.061ZM64.509-54.471a5.3,5.3,0,0,1,3.457,1.14A4.444,4.444,0,0,1,69.414-49.7v2.62c0,1.209.021,2.155.064,2.813a2.862,2.862,0,0,0,.215,1.14.146.146,0,0,0,.16.091,1,1,0,0,0,.386-.07c.175-.072.344-.148.5-.227l.559-.28.663,1.327-1,.625a8.684,8.684,0,0,1-1.525.716,6.235,6.235,0,0,1-2.2.377h-.507l-.1-.5a10.888,10.888,0,0,1-.161-1.164,4.808,4.808,0,0,1-1.186,1.137,4.251,4.251,0,0,1-2.426.652,4.221,4.221,0,0,1-2.906-1.015A3.643,3.643,0,0,1,58.774-44.3a4.048,4.048,0,0,1,.888-2.581,5.512,5.512,0,0,1,2.711-1.685,14.456,14.456,0,0,1,3.975-.554v-.316a8.554,8.554,0,0,0-.179-1.848,1.857,1.857,0,0,0-.556-1.03,1.8,1.8,0,0,0-1.207-.336,1.509,1.509,0,0,0-.8.17,1.561,1.561,0,0,0-.476.473,5.811,5.811,0,0,0-.386.714,3.211,3.211,0,0,1-.534.836,1.492,1.492,0,0,1-1.151.478,1.5,1.5,0,0,1-1.1-.4,1.5,1.5,0,0,1-.4-1.1,2.229,2.229,0,0,1,.847-1.751,5.016,5.016,0,0,1,1.85-.925A8.224,8.224,0,0,1,64.509-54.471Zm-3.45,3.242c.164,0,.207-.048.224-.067a1.971,1.971,0,0,0,.322-.512,7.064,7.064,0,0,1,.47-.868q.047-.074.1-.145a3.385,3.385,0,0,0-.973.545.979.979,0,0,0-.4.791.424.424,0,0,0,.037.22A.425.425,0,0,0,61.059-51.229Zm7.89,9.136a1.477,1.477,0,0,1-.338-.4,3.935,3.935,0,0,1-.382-1.688c-.044-.685-.066-1.658-.066-2.893V-49.7a3.232,3.232,0,0,0-.99-2.668q-.053-.043-.106-.084a3.567,3.567,0,0,1,.321.89,9.793,9.793,0,0,1,.21,2.121v.9h.019l-.019.662a12.525,12.525,0,0,1-.245,2.025,9.8,9.8,0,0,1-.285,1.1l.53.086c0,.689.025,1.353.076,1.973.027.329.056.614.086.855A4.723,4.723,0,0,0,68.949-42.093Zm-5.685-.395a1.928,1.928,0,0,0,1.307-.447,3.761,3.761,0,0,0,.965-1.315,8.285,8.285,0,0,0,.591-1.845c.08-.407.139-.8.177-1.162a7.349,7.349,0,0,0-2.369.472,3.226,3.226,0,0,0-1.5,1.116A2.607,2.607,0,0,0,62-44.2a2.233,2.233,0,0,0,.359,1.3A.968.968,0,0,0,63.264-42.488Zm-1.7.588a2.212,2.212,0,0,1-.244-.3,3.486,3.486,0,0,1-.575-2,3.872,3.872,0,0,1,.647-2.159,3.575,3.575,0,0,1,.69-.769A3.676,3.676,0,0,0,60.64-46.1a2.79,2.79,0,0,0-.617,1.8,2.418,2.418,0,0,0,.751,1.92A2.567,2.567,0,0,0,61.564-41.9ZM94.753-54.471a5.3,5.3,0,0,1,3.167.922,5.622,5.622,0,0,1,1.9,2.416,8.3,8.3,0,0,1,.62,3.252v.625H91.929a6.914,6.914,0,0,0,.512,2.746,3.573,3.573,0,0,0,1.273,1.575,3.005,3.005,0,0,0,1.661.5,4.334,4.334,0,0,0,1.849-.421,2.892,2.892,0,0,0,1.335-1.324l.294-.55,1.481.79-.278.546a4.987,4.987,0,0,1-2.212,2.3,6.389,6.389,0,0,1-2.858.661,6.265,6.265,0,0,1-3.051-.791A6.024,6.024,0,0,1,89.591-43.6a7.739,7.739,0,0,1-.885-3.835,8.458,8.458,0,0,1,.7-3.471,6.259,6.259,0,0,1,2.06-2.574A5.491,5.491,0,0,1,94.753-54.471Zm2.4,5.214a6.446,6.446,0,0,0-.661-2.487,1.763,1.763,0,0,0-1.708-.958,2.037,2.037,0,0,0-1.88,1.051,6.536,6.536,0,0,0-.836,2.393Zm2.015.752a6.761,6.761,0,0,0-.5-2.14,4.477,4.477,0,0,0-.951-1.443,8.769,8.769,0,0,1,.724,3.433l.005.15Zm-8.447,0,.017-.184a8.533,8.533,0,0,1,.941-3.341A5.181,5.181,0,0,0,90.551-50.4a7.219,7.219,0,0,0-.594,2.962,6.52,6.52,0,0,0,.724,3.221,4.848,4.848,0,0,0,1.7,1.807,5.275,5.275,0,0,1-1.072-1.577,8.332,8.332,0,0,1-.628-3.451v-.568h-.008l.008-.083v-.415Z" transform="translate(68.312 241.475)"/>
    <path data-name="Path 2833" d="M2.078-12.482a1.315,1.315,0,0,1,.733.2,1.311,1.311,0,0,1,.469.531,1.648,1.648,0,0,1,.163.736,1.686,1.686,0,0,1-.157.73,1.291,1.291,0,0,1-.454.531,1.261,1.261,0,0,1-.718.2,1.293,1.293,0,0,1-.721-.2,1.311,1.311,0,0,1-.469-.531,1.634,1.634,0,0,1-.163-.73,1.727,1.727,0,0,1,.154-.736,1.27,1.27,0,0,1,.451-.531A1.25,1.25,0,0,1,2.078-12.482Zm.036,2.809a.706.706,0,0,0,.5-.181,1.063,1.063,0,0,0,.288-.487,2.331,2.331,0,0,0,.092-.674,2.16,2.16,0,0,0-.1-.68,1.1,1.1,0,0,0-.3-.487.728.728,0,0,0-.5-.181.7.7,0,0,0-.493.181A1.063,1.063,0,0,0,1.3-11.7a2.354,2.354,0,0,0-.092.68,2.14,2.14,0,0,0,.1.674,1.1,1.1,0,0,0,.3.487A.72.72,0,0,0,2.114-9.673Zm6.116-3.48v.73h.73v.131H8.23v2.262a.307.307,0,0,0,.059.2.191.191,0,0,0,.154.071.892.892,0,0,0,.238-.033,2.552,2.552,0,0,0,.267-.092l.012.065a2.27,2.27,0,0,1-.35.184.988.988,0,0,1-.386.077.441.441,0,0,1-.3-.1.467.467,0,0,1-.107-.356v-2.286H7.458v-.131a.576.576,0,0,0,.362-.1A.571.571,0,0,0,8-12.785a2.341,2.341,0,0,0,.1-.356Zm6.989,2.037H13.271v.1a1.761,1.761,0,0,0,.131.73.953.953,0,0,0,.344.422.834.834,0,0,0,.457.137,1.129,1.129,0,0,0,.484-.11.807.807,0,0,0,.371-.365l.089.048a1,1,0,0,1-.442.463,1.315,1.315,0,0,1-.591.137,1.287,1.287,0,0,1-.629-.163,1.233,1.233,0,0,1-.481-.49,1.624,1.624,0,0,1-.184-.808,1.786,1.786,0,0,1,.148-.736,1.286,1.286,0,0,1,.425-.531,1.112,1.112,0,0,1,.668-.2,1.069,1.069,0,0,1,.641.184,1.141,1.141,0,0,1,.386.493A1.751,1.751,0,0,1,15.218-11.116Zm-1.152-1.247a.61.61,0,0,0-.552.309,1.747,1.747,0,0,0-.232.766h1.478a1.77,1.77,0,0,0-.178-.781A.545.545,0,0,0,14.066-12.363Zm6.039-1.621v3.337q0,.327.012.52a.734.734,0,0,0,.062.288.243.243,0,0,0,.151.125,1.032,1.032,0,0,0,.279.03l.012.071H19.167l.012-.071a1.1,1.1,0,0,0,.288-.03.234.234,0,0,0,.151-.125.78.78,0,0,0,.059-.288q.012-.193.012-.52v-2.268q0-.321-.012-.511a.717.717,0,0,0-.059-.279.227.227,0,0,0-.151-.116,1.212,1.212,0,0,0-.288-.027l-.012-.065.131-.018q.131-.018.347-.036T20.105-13.984Zm13.781,4.3.012.071H33a1.675,1.675,0,0,1-.4-.166,3.66,3.66,0,0,1-.511-.338,1.508,1.508,0,0,1-.594.43,1.907,1.907,0,0,1-.707.134,1.36,1.36,0,0,1-.974-.327,1.161,1.161,0,0,1-.344-.885,1.082,1.082,0,0,1,.172-.588,1.788,1.788,0,0,1,.451-.481,2.544,2.544,0,0,1,.6-.333q-.018-.1-.03-.208a1.988,1.988,0,0,1-.012-.22,1.329,1.329,0,0,1,.131-.6,1.052,1.052,0,0,1,.362-.419.951.951,0,0,1,.54-.154.721.721,0,0,1,.528.2.647.647,0,0,1,.2.478.889.889,0,0,1-.089.38.738.738,0,0,1-.3.318,1.281,1.281,0,0,1-.594.145,2.727,2.727,0,0,0,.422.157,2.2,2.2,0,0,0,.629.08.973.973,0,0,0,.439-.092,2.322,2.322,0,0,0,.309-.181A.529.529,0,0,1,33.5-12.4a.118.118,0,0,1,.11.045.2.2,0,0,1,.027.1.207.207,0,0,1-.119.178,1.171,1.171,0,0,1-.291.119,2.719,2.719,0,0,1-.338.071q-.166.024-.267.03a3.586,3.586,0,0,1-.092.8,2.649,2.649,0,0,1-.229.62,4.8,4.8,0,0,0,.463.327,3.9,3.9,0,0,0,.57.3A1.527,1.527,0,0,0,33.887-9.685Zm-2.809-2.9a2,2,0,0,0,.1.549,3.01,3.01,0,0,0,.33.707,3.633,3.633,0,0,0,.618.739,2.732,2.732,0,0,0,.175-.6,4.319,4.319,0,0,0,.062-.668,1.793,1.793,0,0,1-.606-.143,2.091,2.091,0,0,1-.4-.238V-12.3a.636.636,0,0,0,.356-.1.72.72,0,0,0,.243-.267.755.755,0,0,0,.089-.362.91.91,0,0,0-.1-.448.317.317,0,0,0-.291-.181.476.476,0,0,0-.4.279A1.553,1.553,0,0,0,31.078-12.589Zm-.2,2.856a1.52,1.52,0,0,0,.615-.116,1.048,1.048,0,0,0,.448-.389,5.178,5.178,0,0,1-.511-.511,3.733,3.733,0,0,1-.439-.62,2.7,2.7,0,0,1-.279-.71,1.418,1.418,0,0,0-.766,1.318,1.128,1.128,0,0,0,.131.567.873.873,0,0,0,.344.344A.945.945,0,0,0,30.876-9.733Zm13.045.042a1.243,1.243,0,0,0,.451-.08.735.735,0,0,0,.338-.261.81.81,0,0,0,.131-.484.682.682,0,0,0-.148-.436,1.568,1.568,0,0,0-.383-.338q-.235-.151-.5-.3a5.064,5.064,0,0,1-.5-.321,1.551,1.551,0,0,1-.383-.4.95.95,0,0,1-.148-.534.864.864,0,0,1,.157-.517,1.044,1.044,0,0,1,.422-.341,1.381,1.381,0,0,1,.585-.122,2.549,2.549,0,0,1,.591.071,2.343,2.343,0,0,1,.5.172,4.785,4.785,0,0,1-.03.54q-.03.261-.059.481l-.089-.024a1.312,1.312,0,0,0-.14-.653.852.852,0,0,0-.35-.35.919.919,0,0,0-.419-.107.773.773,0,0,0-.558.2.689.689,0,0,0-.214.52.687.687,0,0,0,.148.445,1.5,1.5,0,0,0,.383.33q.235.145.5.285a4.619,4.619,0,0,1,.5.306,1.451,1.451,0,0,1,.383.395.986.986,0,0,1,.148.549.992.992,0,0,1-.193.635,1.116,1.116,0,0,1-.5.356,1.805,1.805,0,0,1-.635.113,2.2,2.2,0,0,1-.395-.039,1.927,1.927,0,0,1-.407-.122,1.174,1.174,0,0,1-.338-.214,5.031,5.031,0,0,1,.024-.511q.024-.232.048-.451l.089.018a1.448,1.448,0,0,0,.137.668.9.9,0,0,0,.362.389A.991.991,0,0,0,43.921-9.691Zm6.193-3.462v.73h.73v.131h-.73v2.262a.307.307,0,0,0,.059.2.191.191,0,0,0,.154.071.892.892,0,0,0,.238-.033,2.552,2.552,0,0,0,.267-.092l.012.065a2.27,2.27,0,0,1-.35.184.988.988,0,0,1-.386.077.441.441,0,0,1-.3-.1.467.467,0,0,1-.107-.356v-2.286h-.356v-.131a.576.576,0,0,0,.362-.1.571.571,0,0,0,.184-.264,2.341,2.341,0,0,0,.1-.356Zm6.8,1.621v.6q0,.422.015.653A.8.8,0,0,0,57-9.955a.174.174,0,0,0,.16.092A.373.373,0,0,0,57.3-9.89q.065-.027.125-.056l.03.059-.119.074a1.87,1.87,0,0,1-.324.151,1.279,1.279,0,0,1-.454.077,2.862,2.862,0,0,1-.042-.333q-.018-.22-.018-.463a2.093,2.093,0,0,1-.175.386.95.95,0,0,1-.294.315.831.831,0,0,1-.475.125.824.824,0,0,1-.57-.2.694.694,0,0,1-.22-.546.783.783,0,0,1,.172-.5,1.12,1.12,0,0,1,.552-.338,3.4,3.4,0,0,1,1.009-.122v-.214a2.09,2.09,0,0,0-.045-.454.567.567,0,0,0-.172-.312.544.544,0,0,0-.371-.113.472.472,0,0,0-.261.062.5.5,0,0,0-.151.151,1.467,1.467,0,0,0-.1.181.59.59,0,0,1-.1.154.2.2,0,0,1-.157.062.178.178,0,0,1-.2-.2.365.365,0,0,1,.143-.291,1,1,0,0,1,.371-.184,1.731,1.731,0,0,1,.478-.065,1.069,1.069,0,0,1,.7.229A.879.879,0,0,1,56.913-11.532ZM55.648-9.739a.584.584,0,0,0,.392-.137,1,1,0,0,0,.258-.35,2.03,2.03,0,0,0,.145-.454,2.708,2.708,0,0,0,.053-.442,2.036,2.036,0,0,0-.751.125.872.872,0,0,0-.407.309.742.742,0,0,0-.125.416.655.655,0,0,0,.107.377A.368.368,0,0,0,55.648-9.739Zm6.033,1.372a.625.625,0,0,0,.511-.243,2.967,2.967,0,0,0,.392-.724L61.7-11.567a2.593,2.593,0,0,0-.261-.528.57.57,0,0,0-.232-.211.641.641,0,0,0-.238-.045l-.012-.071h1.473l-.012.071a.453.453,0,0,0-.291.068.252.252,0,0,0-.077.2,1.45,1.45,0,0,0,.077.41q.077.249.2.564l.457,1.152.463-1.425a2.98,2.98,0,0,0,.11-.4,1.481,1.481,0,0,0,.027-.246.313.313,0,0,0-.089-.232.461.461,0,0,0-.327-.089l-.012-.071h1.116l-.012.071a.572.572,0,0,0-.2.03.309.309,0,0,0-.143.137,1.993,1.993,0,0,0-.148.335q-.083.229-.214.626L62.821-9.6a3.893,3.893,0,0,1-.612,1.235.967.967,0,0,1-.73.433.57.57,0,0,1-.279-.065.211.211,0,0,1-.119-.2.229.229,0,0,1,.08-.193.252.252,0,0,1,.151-.062.394.394,0,0,1,.2.039A.336.336,0,0,0,61.681-8.367Z" transform="translate(72.291 217.584)" fill="#9b804e"/>
    <path data-name="Path 2833 - Outline" d="M19.761-14.484h.156v3.493c0,.213,0,.385.012.51a.577.577,0,0,0,.044.224.088.088,0,0,0,.058.048.868.868,0,0,0,.235.023H20.4l.064.384H18.639l.064-.384h.132a.93.93,0,0,0,.245-.024.078.078,0,0,0,.055-.044.621.621,0,0,0,.043-.228c.008-.125.012-.3.012-.51v-2.268c0-.21,0-.378-.012-.5a.562.562,0,0,0-.041-.215.072.072,0,0,0-.052-.038,1.044,1.044,0,0,0-.249-.022H18.7l-.064-.354.292-.04c.089-.012.209-.024.356-.037S19.6-14.484,19.761-14.484Zm-.066,4.37a.88.88,0,0,1-.078-.348c-.008-.131-.012-.309-.012-.529V-14.17c-.074,0-.146.005-.216.01a.4.4,0,0,1,.023.038.852.852,0,0,1,.077.343c.008.129.012.3.012.52v2.268c0,.22,0,.4-.012.529a.916.916,0,0,1-.075.348Zm23.912-4.21a2.718,2.718,0,0,1,.627.075,2.508,2.508,0,0,1,.535.184l.086.043v.1a4.966,4.966,0,0,1-.031.558c-.02.175-.04.337-.06.484l-.024.176-.376-.1v-.12a1.169,1.169,0,0,0-.119-.575.694.694,0,0,0-.285-.289.769.769,0,0,0-.348-.09.618.618,0,0,0-.45.161.534.534,0,0,0-.166.407.531.531,0,0,0,.114.347,1.354,1.354,0,0,0,.344.295c.153.095.317.189.487.28a4.8,4.8,0,0,1,.513.316,1.613,1.613,0,0,1,.424.437,1.144,1.144,0,0,1,.174.634,1.148,1.148,0,0,1-.227.732,1.275,1.275,0,0,1-.564.406,1.969,1.969,0,0,1-.69.123,2.365,2.365,0,0,1-.423-.041,2.092,2.092,0,0,1-.44-.132,1.335,1.335,0,0,1-.383-.242l-.051-.046v-.069A5.212,5.212,0,0,1,42.3-10.8c.016-.155.032-.307.048-.452l.018-.17.382.076v.128a1.3,1.3,0,0,0,.119.6.741.741,0,0,0,.3.324.829.829,0,0,0,.411.105,1.094,1.094,0,0,0,.4-.07.577.577,0,0,0,.268-.207.665.665,0,0,0,.1-.393.525.525,0,0,0-.115-.339,1.42,1.42,0,0,0-.345-.3c-.153-.1-.317-.2-.488-.3a5.244,5.244,0,0,1-.511-.331,1.714,1.714,0,0,1-.421-.438,1.108,1.108,0,0,1-.174-.62,1.021,1.021,0,0,1,.187-.608,1.2,1.2,0,0,1,.483-.392A1.542,1.542,0,0,1,43.607-14.324Zm.935.5a2.1,2.1,0,0,0-.205-.073,1.148,1.148,0,0,1,.18.24l.017.031Q44.541-13.724,44.543-13.824Zm.055,3.337A.866.866,0,0,0,44.74-11a.827.827,0,0,0-.123-.464,1.3,1.3,0,0,0-.342-.352,4.485,4.485,0,0,0-.479-.3c-.176-.094-.346-.192-.5-.29a1.665,1.665,0,0,1-.422-.364.842.842,0,0,1-.183-.543.917.917,0,0,1,.052-.314l-.01.013a.705.705,0,0,0-.128.426.791.791,0,0,0,.123.449,1.4,1.4,0,0,0,.345.358,4.93,4.93,0,0,0,.481.311c.176.1.345.2.5.3a1.731,1.731,0,0,1,.421.373.837.837,0,0,1,.182.534A1.144,1.144,0,0,1,44.6-10.487Zm-1.851.245a1.2,1.2,0,0,1-.155-.231q0,.063,0,.13A1.013,1.013,0,0,0,42.746-10.242ZM31.34-14.264a.874.874,0,0,1,.638.244.8.8,0,0,1,.248.589,1.048,1.048,0,0,1-.1.446.894.894,0,0,1-.364.385.925.925,0,0,1-.093.048,2.265,2.265,0,0,0,.47.044.824.824,0,0,0,.37-.076,2.178,2.178,0,0,0,.288-.168.648.648,0,0,1,.364-.154.262.262,0,0,1,.244.12.353.353,0,0,1,.049.184.355.355,0,0,1-.195.312,1.33,1.33,0,0,1-.33.135,2.888,2.888,0,0,1-.358.075l-.137.018a3.594,3.594,0,0,1-.093.693,2.969,2.969,0,0,1-.184.539c.1.076.219.156.35.239a3.758,3.758,0,0,0,.547.285,1.38,1.38,0,0,0,.5.118l.129,0,.063.381h-1.1l-.017,0a1.805,1.805,0,0,1-.444-.181,3.61,3.61,0,0,1-.418-.267,1.638,1.638,0,0,1-.555.366,2.072,2.072,0,0,1-.764.145,1.515,1.515,0,0,1-1.081-.369,1.316,1.316,0,0,1-.393-1,1.241,1.241,0,0,1,.2-.671,1.952,1.952,0,0,1,.49-.523,2.719,2.719,0,0,1,.52-.3q-.006-.046-.012-.094a2.158,2.158,0,0,1-.013-.237A1.489,1.489,0,0,1,30.3-13.6a1.211,1.211,0,0,1,.416-.479A1.109,1.109,0,0,1,31.34-14.264ZM31.007-12.8a.479.479,0,0,0,.271-.075.561.561,0,0,0,.191-.21.6.6,0,0,0,.071-.288.762.762,0,0,0-.081-.372.161.161,0,0,0-.154-.1c-.037,0-.149,0-.27.2a1.414,1.414,0,0,0-.144.71,1.1,1.1,0,0,0,.009.135Zm.783-.237a.485.485,0,0,0,.049-.082.738.738,0,0,0,.074-.314.487.487,0,0,0-.123-.332,1.177,1.177,0,0,1,.061.391A.923.923,0,0,1,31.791-13.035Zm-1.2.314a1.469,1.469,0,0,1-.016-.211,1.952,1.952,0,0,1,.111-.71.976.976,0,0,0-.111.177,1.18,1.18,0,0,0-.114.527,1.841,1.841,0,0,0,.011.2c.008.068.017.134.028.2l.009.051.007.029a2.56,2.56,0,0,0,.263.669,3.594,3.594,0,0,0,.421.595,5.047,5.047,0,0,0,.5.5l.035.03.107.083a3.523,3.523,0,0,0,.489.324,1.616,1.616,0,0,0,.348.148h.038a4.075,4.075,0,0,1-.377-.21,4.975,4.975,0,0,1-.478-.337l-.02-.016,0,.008-.163-.153a3.805,3.805,0,0,1-.644-.771,3.178,3.178,0,0,1-.346-.744,2.956,2.956,0,0,1-.077-.314l-.127-.063Zm2.383.223a.82.82,0,0,0,.117-.057.136.136,0,0,0,.038-.031A.605.605,0,0,0,32.978-12.5Zm-1.122.43a1.8,1.8,0,0,1-.51-.14,2.447,2.447,0,0,1-.358-.2,2.905,2.905,0,0,0,.307.651,3.265,3.265,0,0,0,.422.539,2.725,2.725,0,0,0,.084-.348A4.117,4.117,0,0,0,31.856-12.068Zm-.472,1.508a5.511,5.511,0,0,1-.417-.428,3.908,3.908,0,0,1-.458-.646,2.876,2.876,0,0,1-.237-.541,1.247,1.247,0,0,0-.516,1.072.982.982,0,0,0,.11.49.713.713,0,0,0,.283.285.784.784,0,0,0,.383.1,1.373,1.373,0,0,0,.552-.1A.833.833,0,0,0,31.384-10.56Zm-1.548.393a1.073,1.073,0,0,1-.24-.292,1.286,1.286,0,0,1-.151-.645,1.725,1.725,0,0,1,.145-.72,1.537,1.537,0,0,0-.159.21.921.921,0,0,0-.148.5,1,1,0,0,0,.3.771A.915.915,0,0,0,29.835-10.167Zm-21.793-3.5v.745h.73v.443h-.73v2.106a.17.17,0,0,0,.023.1.036.036,0,0,0,.034.015.74.74,0,0,0,.2-.027,2.411,2.411,0,0,0,.251-.086l.178-.071.065.356-.088.057a2.437,2.437,0,0,1-.374.2,1.148,1.148,0,0,1-.446.089.592.592,0,0,1-.407-.134.6.6,0,0,1-.159-.473v-2.13H6.958v-.443h.156a.441.441,0,0,0,.266-.065.414.414,0,0,0,.133-.194,2.2,2.2,0,0,0,.089-.333l.022-.116ZM7.73-12.61v-.305a.7.7,0,0,1-.1.127v2.439c0,.177.042.228.054.239a.261.261,0,0,0,.158.054l-.014-.015a.458.458,0,0,1-.1-.3Zm42.2-1.058v.745h.73v.443h-.73v2.106a.17.17,0,0,0,.023.1.036.036,0,0,0,.034.015.74.74,0,0,0,.2-.027,2.411,2.411,0,0,0,.251-.086l.178-.071.065.356-.088.057a2.437,2.437,0,0,1-.374.2,1.148,1.148,0,0,1-.446.089.592.592,0,0,1-.407-.134.6.6,0,0,1-.159-.473v-2.13h-.356v-.443H49a.441.441,0,0,0,.266-.065.414.414,0,0,0,.133-.194,2.2,2.2,0,0,0,.089-.333l.022-.116Zm-.313,1.058v-.305a.7.7,0,0,1-.1.127v2.439c0,.177.042.228.054.239a.261.261,0,0,0,.158.054l-.014-.015a.458.458,0,0,1-.1-.3Zm-47.88-.372a1.474,1.474,0,0,1,.819.224,1.471,1.471,0,0,1,.524.594,1.81,1.81,0,0,1,.179.805,1.848,1.848,0,0,1-.172.8,1.451,1.451,0,0,1-.509.594,1.419,1.419,0,0,1-.805.225,1.453,1.453,0,0,1-.807-.224,1.471,1.471,0,0,1-.524-.594,1.8,1.8,0,0,1-.179-.8,1.89,1.89,0,0,1,.169-.8,1.43,1.43,0,0,1,.506-.6A1.409,1.409,0,0,1,1.734-12.982Zm.036,2.809a.551.551,0,0,0,.393-.14.915.915,0,0,0,.244-.417,2.187,2.187,0,0,0,.085-.629A2.015,2.015,0,0,0,2.4-11.99a.953.953,0,0,0-.259-.42.572.572,0,0,0-.4-.141.543.543,0,0,0-.387.14.915.915,0,0,0-.244.417,2.21,2.21,0,0,0-.085.635,2,2,0,0,0,.093.625.953.953,0,0,0,.259.42A.564.564,0,0,0,1.77-10.173Zm-.856-.239a1.493,1.493,0,0,1-.094-.224,2.306,2.306,0,0,1-.109-.723,2.52,2.52,0,0,1,.1-.725A1.45,1.45,0,0,1,.9-12.321a1.145,1.145,0,0,0-.192.292,1.58,1.58,0,0,0-.14.67A1.487,1.487,0,0,0,.72-10.7,1.179,1.179,0,0,0,.914-10.412Zm1.705,0A1.175,1.175,0,0,0,2.8-10.7a1.538,1.538,0,0,0,.142-.664,1.5,1.5,0,0,0-.147-.667,1.179,1.179,0,0,0-.194-.285,1.493,1.493,0,0,1,.094.224,2.326,2.326,0,0,1,.109.729,2.5,2.5,0,0,1-.1.719A1.459,1.459,0,0,1,2.619-10.416Zm11.1-2.566a1.225,1.225,0,0,1,.733.214,1.3,1.3,0,0,1,.438.559,1.914,1.914,0,0,1,.143.75v.156H13.084a1.555,1.555,0,0,0,.116.61.805.805,0,0,0,.286.355.675.675,0,0,0,.373.112.979.979,0,0,0,.418-.1.649.649,0,0,0,.3-.3l.074-.138.362.193-.07.137a1.154,1.154,0,0,1-.512.532,1.476,1.476,0,0,1-.66.153,1.447,1.447,0,0,1-.7-.183,1.392,1.392,0,0,1-.542-.55,1.784,1.784,0,0,1-.2-.884,1.949,1.949,0,0,1,.162-.8,1.446,1.446,0,0,1,.476-.595A1.27,1.27,0,0,1,13.717-12.982Zm.534,1.193a1.447,1.447,0,0,0-.149-.55.391.391,0,0,0-.379-.212.454.454,0,0,0-.419.234,1.472,1.472,0,0,0-.187.528Zm.461.172a1.528,1.528,0,0,0-.112-.472,1.043,1.043,0,0,0-.161-.268,2.134,2.134,0,0,1,.135.718v.022Zm-1.931,0,0-.03a2.041,2.041,0,0,1,.176-.689,1.2,1.2,0,0,0-.192.3,1.639,1.639,0,0,0-.135.673,1.48,1.48,0,0,0,.164.731,1.121,1.121,0,0,0,.292.346,1.3,1.3,0,0,1-.172-.281,1.92,1.92,0,0,1-.145-.8v-.117h0l0-.033v-.108ZM55.59-12.982a1.226,1.226,0,0,1,.8.264,1.03,1.03,0,0,1,.336.842v.6c0,.276,0,.493.015.643a.648.648,0,0,0,.047.255c.007.013.009.014.025.014a.216.216,0,0,0,.083-.015c.04-.016.078-.034.114-.052l.14-.07.163.326-.239.15a2,2,0,0,1-.351.165,1.44,1.44,0,0,1-.509.087h-.127L56.06-9.9a2.323,2.323,0,0,1-.034-.234,1.116,1.116,0,0,1-.254.236.986.986,0,0,1-.563.152.979.979,0,0,1-.674-.236.847.847,0,0,1-.272-.663.94.94,0,0,1,.206-.6,1.275,1.275,0,0,1,.627-.39,3.3,3.3,0,0,1,.9-.127v-.059a1.945,1.945,0,0,0-.041-.42.413.413,0,0,0-.123-.229.4.4,0,0,0-.268-.074.333.333,0,0,0-.176.037.345.345,0,0,0-.105.1,1.318,1.318,0,0,0-.088.162.748.748,0,0,1-.125.195.354.354,0,0,1-.273.114.332.332,0,0,1-.358-.358.523.523,0,0,1,.2-.411,1.161,1.161,0,0,1,.428-.214A1.9,1.9,0,0,1,55.59-12.982Zm-.79.742c.032,0,.039-.008.041-.011a.438.438,0,0,0,.071-.114,1.63,1.63,0,0,1,.107-.2.723.723,0,0,0-.179.107.209.209,0,0,0-.086.171.122.122,0,0,0,.005.04A.122.122,0,0,0,54.8-12.24Zm1.781,2.1a.358.358,0,0,1-.063-.081.912.912,0,0,1-.089-.392c-.01-.157-.015-.38-.015-.663v-.6a.748.748,0,0,0-.2-.582.867.867,0,0,1,.049.153,2.255,2.255,0,0,1,.048.488v.192h0l-.005.178a2.906,2.906,0,0,1-.056.453,2.261,2.261,0,0,1-.064.25l.121.02c0,.157.006.309.017.451.006.069.012.13.018.182A1.074,1.074,0,0,0,56.58-10.14Zm-1.276-.1a.429.429,0,0,0,.291-.1.848.848,0,0,0,.218-.3,1.884,1.884,0,0,0,.134-.419c.017-.087.03-.17.039-.249a1.647,1.647,0,0,0-.522.106.726.726,0,0,0-.337.25.584.584,0,0,0-.1.33.5.5,0,0,0,.08.289A.21.21,0,0,0,55.3-10.239Zm-.438.112-.018-.025a.811.811,0,0,1-.134-.465.9.9,0,0,1,.15-.5.8.8,0,0,1,.1-.12.755.755,0,0,0-.248.193.626.626,0,0,0-.138.4.541.541,0,0,0,.167.43A.571.571,0,0,0,54.867-10.127Zm5.562-2.8H62.27l-.064.384h-.132c-.151,0-.187.029-.187.029s-.024.022-.024.082a1.31,1.31,0,0,0,.07.363c.05.162.117.348.2.553l.3.749.329-1.013a2.856,2.856,0,0,0,.1-.38,1.34,1.34,0,0,0,.024-.219.157.157,0,0,0-.043-.121c-.007-.007-.052-.043-.216-.043h-.132l-.064-.384h1.485l-.064.384h-.132a.417.417,0,0,0-.146.019s-.029.014-.065.072a1.864,1.864,0,0,0-.135.307c-.055.15-.126.359-.212.622l-.534,1.627a4.061,4.061,0,0,1-.639,1.285,1.116,1.116,0,0,1-.852.491.727.727,0,0,1-.354-.085.367.367,0,0,1-.2-.333.379.379,0,0,1,.14-.316.4.4,0,0,1,.247-.1.535.535,0,0,1,.275.06.186.186,0,0,0,.093.017.472.472,0,0,0,.389-.185,2.7,2.7,0,0,0,.345-.628l-.861-2.174a2.468,2.468,0,0,0-.243-.5A.418.418,0,0,0,60.8-12.5a.482.482,0,0,0-.18-.034h-.132Zm1.155.313h-.424q.031.036.062.08a2.708,2.708,0,0,1,.28.562l.808,2.04.02-.06.031-.1L61.839-11.4c-.084-.213-.154-.406-.206-.576a1.583,1.583,0,0,1-.084-.456A.464.464,0,0,1,61.584-12.61Zm1.657,0h-.1a.465.465,0,0,1,.041.108A1.183,1.183,0,0,1,63.24-12.61Zm-1.9,4.055a.489.489,0,0,1-.252-.06.254.254,0,0,0-.116-.017s-.018,0-.055.029c-.013.01-.02.034-.02.07a.057.057,0,0,0,.038.059.42.42,0,0,0,.2.046.622.622,0,0,0,.377-.144A.884.884,0,0,1,61.337-8.554Z" transform="translate(72.635 217.928)" fill="#9b804e"/>
  </g>
</svg>
